<svg width="2560" height="473" viewBox="0 0 2560 473" fill="none" xmlns="http://www.w3.org/2000/svg">
<path opacity="0.6" d="M1622.14 265.21C1492.77 277.61 1131.32 294.62 1346.46 265.21C1561.6 235.8 1850.07 269.95 1650.39 240.49C1450.71 211.03 1404.1 187.96 1299.95 178.59C1195.79 169.22 869.96 206.44 978.07 173.9C1086.18 141.35 1280.22 124.45 1341.89 135.22C1403.55 146 1316.4 107.54 1219.77 101.22C1123.14 94.9 1110.85 96.33 1262.94 99.49C1415.02 102.65 1504.57 93.05 1564.95 96.3C1625.33 99.55 1724.04 99.24 1769.64 96.3C1815.24 93.36 1603.02 144.57 1593.78 144.51C1584.54 144.45 1710.72 139.19 1857.3 124.02C2003.88 108.84 2229.56 133 2191.28 124.02C2153 115.04 1723.56 131.63 1882.84 93.14C2042.12 54.65 2206.15 40.65 2262.61 40.65C2319.07 40.65 2380.14 37.48 2382.56 51.49C2384.98 65.49 2198.78 108.01 2195.01 107.65C2191.24 107.3 2360.63 105.75 2381.09 116.59C2401.55 127.43 2544.37 134.94 2291.97 155.19C2039.57 175.44 1830.6 162.76 1841.4 170.64C1852.2 178.53 2341.32 198.65 2268.83 211.04C2196.34 223.43 2004.94 230.92 1865.48 227.95C1726.02 224.98 1332.19 182.23 1740.02 227.95C2147.84 273.67 2356.22 285.07 2108.67 285.22C1861.12 285.37 1802.98 279.16 1746.66 282.26C1690.33 285.37 1613.37 263.66 1613.37 263.66" fill="url(#paint0_linear_4503_28016)"/>
<path opacity="0.2" d="M1710.43 456.98C1879.09 456.98 2015.82 354.762 2015.82 228.67C2015.82 102.578 1879.09 0.359863 1710.43 0.359863C1541.77 0.359863 1405.04 102.578 1405.04 228.67C1405.04 354.762 1541.77 456.98 1710.43 456.98Z" fill="url(#paint1_radial_4503_28016)"/>
<path opacity="0.6" d="M1719.9 362.12C1794.99 347.457 1846 285.13 1833.85 222.909C1821.7 160.688 1750.98 122.134 1675.9 136.797C1600.82 151.46 1549.8 213.787 1561.95 276.008C1574.1 338.229 1644.82 376.783 1719.9 362.12Z" fill="url(#paint2_radial_4503_28016)"/>
<path d="M1757.64 159.72C1742.81 156.53 1727.43 155.16 1711.86 155.8C1711.74 156.18 1711.63 156.57 1711.51 156.98C1710.79 159.49 1710.07 162.41 1709.5 165.1C1709.31 166.02 1709.13 166.91 1708.98 167.75C1692.5 168.77 1676.72 172.04 1661.63 177.57C1659.33 174.49 1656.12 170.68 1653.5 167.9C1639.09 173.48 1625.78 180.81 1613.81 189.57C1611.48 195.41 1609.49 201.17 1607.82 206.84C1601.91 226.86 1599.93 245.85 1601.04 264.05C1601.93 278.74 1604.84 292.91 1609.3 306.67C1609.67 307.82 1610.06 308.97 1610.45 310.12C1615.96 312.49 1621.34 314.52 1626.63 316.26C1628.29 316.81 1629.94 317.32 1631.57 317.81C1644.59 321.69 1656.98 323.82 1668.97 324.82C1671.87 318.42 1674.22 311.76 1675.98 304.9C1669.27 303.95 1662.7 302.42 1656.35 300.38C1657.58 299.03 1658.77 297.64 1659.9 296.22C1697.61 304.33 1734.63 296.65 1764.67 274.51C1766.36 275.34 1768.07 276.13 1769.78 276.87C1764.94 281.24 1759.68 285.23 1754.04 288.74C1758.76 294.24 1763.91 299.36 1769.47 304.01C1785.36 295.4 1800.9 284.05 1815.78 267.57C1809.7 223.34 1789.06 188.18 1757.64 159.73V159.72ZM1673.21 272.98C1662.98 275.1 1652.41 267.75 1649.77 256.68C1647.12 245.61 1653.15 234.81 1663.56 232.65C1673.97 230.49 1684.53 237.84 1687.01 248.96C1689.67 260.02 1683.63 270.82 1673.22 272.98H1673.21ZM1742.01 258.72C1731.78 260.84 1721.21 253.49 1718.56 242.42C1715.91 231.35 1721.94 220.55 1732.35 218.39C1742.76 216.23 1753.32 223.58 1755.8 234.7C1758.45 245.77 1752.42 256.56 1742.01 258.72Z" fill="#FFF3F3"/>
<path d="M1252.24 301.25C1251.28 298.52 1249.37 298.23 1248.25 300.69C1246.95 303.55 1245.55 305.82 1244.28 306.25C1242.07 307.01 1242.07 307.49 1239.93 309.4C1238.13 311.01 1241.36 310.77 1243.11 310.16C1244.72 309.6 1248.01 309.11 1245.87 311.11C1244.09 312.77 1235.79 315.23 1236.06 316.93C1236.33 318.63 1250.08 315.59 1247.32 316.93C1241.05 319.96 1234.2 324.46 1234.33 325.8C1234.47 327.14 1243.65 324.75 1243.86 325.32C1244.07 325.89 1236.12 330.09 1234.74 331.8C1233.36 333.51 1242.75 334.38 1243.17 335.33C1243.59 336.28 1228.46 339.9 1228.95 341.68C1229.45 343.46 1245.1 342.47 1243.03 344.57C1240.96 346.67 1226.31 352.78 1227.56 353.16C1228.81 353.54 1233.36 354.69 1231.7 356.59C1230.04 358.5 1226.58 365.17 1227.48 365.75C1228.38 366.33 1266.93 373.57 1266.93 373.57C1266.93 373.57 1268.17 364.03 1271.49 364.99C1274.81 365.94 1271.35 361.75 1266.93 359.27C1262.51 356.79 1268.45 355.65 1270.52 355.65C1272.59 355.65 1265.68 350.5 1261.82 348.59C1257.95 346.68 1265.55 348.02 1267.9 346.87C1270.25 345.73 1254.64 337.05 1255.88 336.67C1257.12 336.29 1264.03 341.53 1265 337.72C1265.97 333.91 1253.4 328.28 1255.47 327.13C1257.54 325.99 1269.7 328.18 1268.04 325.51C1266.38 322.84 1252.64 319.31 1253.88 318.74C1255.12 318.17 1263.34 319.22 1262.65 317.5C1261.96 315.78 1250.22 310.06 1252.57 310.06C1254.92 310.06 1260.93 311.01 1258.99 309.01C1257.95 307.93 1254.28 307.01 1252.24 301.24V301.25Z" fill="#282133"/>
<path d="M1880.35 235.7C1879.39 233.26 1877.48 233 1876.36 235.2C1875.06 237.76 1873.66 239.78 1872.39 240.17C1870.18 240.85 1870.18 241.28 1868.04 242.98C1866.24 244.41 1869.47 244.2 1871.22 243.66C1872.83 243.16 1876.12 242.72 1873.98 244.51C1872.2 245.99 1863.9 248.19 1864.17 249.71C1864.44 251.23 1878.19 248.52 1875.43 249.71C1869.16 252.42 1862.31 256.44 1862.44 257.63C1862.58 258.82 1871.76 256.69 1871.97 257.2C1872.18 257.71 1864.23 261.46 1862.85 262.99C1861.47 264.52 1870.86 265.29 1871.28 266.14C1871.69 266.99 1856.57 270.23 1857.06 271.81C1857.56 273.4 1873.21 272.51 1871.14 274.39C1869.07 276.27 1854.42 281.72 1855.67 282.06C1856.92 282.4 1861.47 283.42 1859.81 285.13C1858.15 286.84 1854.69 292.8 1855.59 293.31C1856.49 293.82 1895.04 300.29 1895.04 300.29C1895.04 300.29 1896.28 291.77 1899.6 292.62C1902.92 293.47 1899.46 289.72 1895.04 287.51C1890.62 285.3 1896.56 284.27 1898.63 284.27C1900.7 284.27 1893.79 279.67 1889.93 277.97C1886.06 276.27 1893.66 277.46 1896.01 276.44C1898.36 275.42 1882.75 267.67 1883.99 267.33C1885.23 266.99 1892.14 271.67 1893.11 268.27C1894.08 264.86 1881.51 259.84 1883.58 258.82C1885.65 257.8 1897.81 259.76 1896.15 257.37C1894.49 254.99 1880.75 251.83 1881.99 251.32C1883.23 250.81 1891.45 251.75 1890.76 250.21C1890.07 248.68 1878.33 243.57 1880.68 243.57C1883.03 243.57 1889.04 244.42 1887.1 242.63C1886.06 241.66 1882.39 240.85 1880.35 235.69V235.7Z" fill="#282133"/>
<path d="M1924.94 228.1C1923.81 225.23 1921.56 224.92 1920.23 227.51C1918.69 230.52 1917.05 232.9 1915.56 233.37C1912.96 234.17 1912.96 234.67 1910.43 236.68C1908.31 238.37 1912.12 238.12 1914.17 237.48C1916.06 236.89 1919.95 236.38 1917.43 238.48C1915.34 240.23 1905.55 242.82 1905.87 244.6C1906.19 246.38 1922.39 243.2 1919.14 244.6C1911.75 247.79 1903.68 252.53 1903.84 253.93C1904 255.33 1914.82 252.83 1915.07 253.43C1915.32 254.03 1905.96 258.45 1904.33 260.25C1902.7 262.06 1913.77 262.96 1914.26 263.96C1914.75 264.96 1896.92 268.77 1897.51 270.64C1898.1 272.51 1916.54 271.47 1914.1 273.68C1911.66 275.89 1894.41 282.32 1895.87 282.72C1897.33 283.12 1902.71 284.33 1900.75 286.33C1898.8 288.34 1894.71 295.36 1895.78 295.96C1896.85 296.56 1942.26 304.19 1942.26 304.19C1942.26 304.19 1943.72 294.16 1947.63 295.16C1951.54 296.16 1947.47 291.75 1942.26 289.14C1937.05 286.53 1944.05 285.33 1946.49 285.33C1948.93 285.33 1940.79 279.91 1936.24 277.9C1931.69 275.89 1940.63 277.3 1943.4 276.09C1946.17 274.89 1927.77 265.75 1929.24 265.35C1930.7 264.95 1938.84 270.47 1939.98 266.45C1941.12 262.44 1926.31 256.52 1928.75 255.31C1931.19 254.1 1945.51 256.41 1943.56 253.6C1941.61 250.79 1925.41 247.08 1926.88 246.48C1928.34 245.88 1938.03 246.98 1937.22 245.18C1936.41 243.37 1922.57 237.35 1925.34 237.35C1928.11 237.35 1935.19 238.35 1932.91 236.25C1931.68 235.11 1927.36 234.15 1924.95 228.07L1924.94 228.1Z" fill="#282133"/>
<path d="M2061.14 224.31C2060.01 221.82 2057.76 221.55 2056.43 223.8C2054.89 226.42 2053.25 228.48 2051.76 228.88C2049.16 229.58 2049.16 230.01 2046.63 231.76C2044.51 233.23 2048.32 233.01 2050.37 232.46C2052.26 231.95 2056.15 231.5 2053.63 233.33C2051.54 234.85 2041.75 237.1 2042.07 238.65C2042.39 240.2 2058.59 237.43 2055.34 238.65C2047.95 241.42 2039.88 245.53 2040.04 246.75C2040.2 247.97 2051.02 245.79 2051.27 246.31C2051.52 246.83 2042.16 250.67 2040.53 252.24C2038.9 253.81 2049.97 254.59 2050.46 255.46C2050.95 256.33 2033.12 259.64 2033.71 261.26C2034.3 262.88 2052.74 261.98 2050.3 263.9C2047.86 265.82 2030.61 271.4 2032.07 271.75C2033.53 272.1 2038.91 273.14 2036.95 274.89C2035 276.63 2030.91 282.73 2031.98 283.26C2033.05 283.79 2078.46 290.41 2078.46 290.41C2078.46 290.41 2079.92 281.7 2083.83 282.57C2087.74 283.44 2083.67 279.61 2078.46 277.34C2073.25 275.07 2080.25 274.03 2082.69 274.03C2085.13 274.03 2076.99 269.32 2072.44 267.58C2067.88 265.84 2076.83 267.06 2079.6 266.01C2082.37 264.96 2063.97 257.03 2065.44 256.69C2066.91 256.35 2075.04 261.13 2076.18 257.65C2077.32 254.17 2062.51 249.02 2064.95 247.98C2067.39 246.93 2081.71 248.94 2079.76 246.5C2077.81 244.06 2061.61 240.84 2063.08 240.31C2064.55 239.78 2074.23 240.75 2073.42 239.18C2072.61 237.61 2058.77 232.38 2061.54 232.38C2064.31 232.38 2071.39 233.25 2069.11 231.42C2067.88 230.43 2063.56 229.6 2061.15 224.32L2061.14 224.31Z" fill="#282133"/>
<path d="M2107.43 220.99C2106.07 217.41 2103.38 217.02 2101.8 220.25C2099.96 224.01 2098 226.98 2096.21 227.56C2093.09 228.56 2093.09 229.19 2090.08 231.69C2087.54 233.8 2092.1 233.49 2094.56 232.69C2096.83 231.96 2101.47 231.31 2098.46 233.94C2095.96 236.12 2084.24 239.35 2084.63 241.58C2085.02 243.81 2104.39 239.83 2100.5 241.58C2091.66 245.56 2082 251.47 2082.19 253.23C2082.38 254.98 2095.33 251.85 2095.63 252.6C2095.93 253.35 2084.72 258.86 2082.78 261.12C2080.83 263.37 2094.08 264.5 2094.66 265.75C2095.24 267 2073.92 271.76 2074.62 274.09C2075.32 276.42 2097.39 275.12 2094.47 277.89C2091.55 280.66 2070.9 288.67 2072.66 289.17C2074.41 289.67 2080.84 291.17 2078.5 293.68C2076.16 296.18 2071.28 304.95 2072.55 305.7C2073.82 306.45 2128.16 315.97 2128.16 315.97C2128.16 315.97 2129.91 303.45 2134.59 304.7C2139.27 305.95 2134.4 300.44 2128.16 297.19C2121.93 293.93 2130.3 292.43 2133.22 292.43C2136.14 292.43 2126.4 285.67 2120.95 283.16C2115.5 280.66 2126.21 282.41 2129.52 280.91C2132.83 279.41 2110.82 268.01 2112.58 267.51C2114.34 267.01 2124.07 273.9 2125.43 268.89C2126.79 263.88 2109.07 256.49 2111.99 254.99C2114.91 253.49 2132.05 256.37 2129.71 252.86C2127.37 249.35 2107.99 244.72 2109.75 243.97C2111.5 243.22 2123.09 244.6 2122.12 242.34C2121.15 240.09 2104.59 232.57 2107.9 232.57C2111.21 232.57 2119.68 233.82 2116.96 231.19C2115.49 229.77 2110.32 228.57 2107.44 220.99H2107.43Z" fill="#282133"/>
<path d="M2235.5 200.2C2234.14 196.62 2231.45 196.23 2229.87 199.46C2228.03 203.22 2226.07 206.19 2224.28 206.77C2221.16 207.77 2221.16 208.4 2218.15 210.9C2215.61 213.01 2220.17 212.7 2222.63 211.9C2224.9 211.17 2229.54 210.52 2226.53 213.15C2224.03 215.33 2212.31 218.56 2212.7 220.79C2213.09 223.01 2232.46 219.04 2228.57 220.79C2219.73 224.77 2210.07 230.68 2210.26 232.44C2210.45 234.2 2223.4 231.06 2223.7 231.81C2224 232.56 2212.79 238.07 2210.85 240.33C2208.9 242.58 2222.15 243.71 2222.73 244.96C2223.31 246.21 2201.99 250.97 2202.69 253.3C2203.39 255.63 2225.46 254.33 2222.54 257.1C2219.62 259.86 2198.97 267.88 2200.73 268.38C2202.48 268.88 2208.91 270.38 2206.57 272.89C2204.23 275.39 2199.35 284.16 2200.62 284.91C2201.89 285.66 2256.23 295.18 2256.23 295.18C2256.23 295.18 2257.98 282.66 2262.66 283.91C2267.33 285.16 2262.47 279.65 2256.23 276.4C2250 273.14 2258.37 271.64 2261.29 271.64C2264.21 271.64 2254.47 264.88 2249.02 262.37C2243.57 259.87 2254.28 261.62 2257.59 260.12C2260.9 258.62 2238.89 247.22 2240.65 246.72C2242.4 246.22 2252.14 253.11 2253.5 248.1C2254.86 243.09 2237.14 235.7 2240.06 234.2C2242.98 232.7 2260.12 235.58 2257.78 232.07C2255.44 228.56 2236.06 223.93 2237.82 223.18C2239.57 222.43 2251.16 223.81 2250.19 221.55C2249.22 219.3 2232.66 211.78 2235.97 211.78C2239.28 211.78 2247.75 213.03 2245.03 210.4C2243.56 208.98 2238.39 207.78 2235.51 200.2H2235.5Z" fill="#282133"/>
<path d="M2375.22 210.45C2373.86 206.87 2371.17 206.48 2369.59 209.71C2367.75 213.47 2365.79 216.44 2364 217.02C2360.88 218.02 2360.88 218.65 2357.87 221.15C2355.33 223.26 2359.89 222.95 2362.35 222.15C2364.62 221.42 2369.26 220.77 2366.25 223.4C2363.75 225.58 2352.03 228.81 2352.42 231.04C2352.81 233.26 2372.18 229.29 2368.29 231.04C2359.45 235.02 2349.79 240.93 2349.98 242.69C2350.17 244.44 2363.12 241.31 2363.42 242.06C2363.72 242.81 2352.51 248.32 2350.57 250.58C2348.63 252.84 2361.87 253.96 2362.45 255.21C2363.03 256.46 2341.71 261.22 2342.41 263.55C2343.11 265.88 2365.18 264.58 2362.26 267.35C2359.34 270.11 2338.69 278.13 2340.45 278.63C2342.2 279.13 2348.63 280.63 2346.29 283.14C2343.95 285.64 2339.07 294.41 2340.34 295.16C2341.61 295.91 2395.95 305.43 2395.95 305.43C2395.95 305.43 2397.7 292.91 2402.38 294.16C2407.05 295.41 2402.19 289.9 2395.95 286.65C2389.72 283.39 2398.09 281.89 2401.01 281.89C2403.93 281.89 2394.19 275.13 2388.74 272.62C2383.29 270.12 2394 271.87 2397.31 270.37C2400.62 268.87 2378.61 257.47 2380.37 256.97C2382.12 256.47 2391.86 263.36 2393.22 258.35C2394.58 253.34 2376.86 245.95 2379.78 244.45C2382.7 242.95 2399.84 245.83 2397.5 242.32C2395.16 238.81 2375.78 234.18 2377.54 233.43C2379.29 232.68 2390.88 234.06 2389.91 231.8C2388.94 229.55 2372.38 222.03 2375.69 222.03C2379 222.03 2387.47 223.28 2384.75 220.65C2383.28 219.23 2378.11 218.03 2375.23 210.45H2375.22Z" fill="#282133"/>
<path d="M2330.2 237.21C2329.17 235.02 2327.13 234.79 2325.94 236.76C2324.55 239.06 2323.06 240.87 2321.7 241.22C2319.34 241.83 2319.34 242.21 2317.05 243.74C2315.13 245.03 2318.58 244.84 2320.44 244.35C2322.16 243.9 2325.68 243.51 2323.39 245.11C2321.49 246.44 2312.62 248.42 2312.92 249.78C2313.22 251.14 2327.89 248.71 2324.94 249.78C2318.25 252.21 2310.93 255.82 2311.07 256.89C2311.21 257.96 2321.02 256.05 2321.25 256.51C2321.48 256.97 2312.99 260.33 2311.51 261.71C2310.03 263.09 2320.07 263.78 2320.51 264.54C2320.95 265.3 2304.8 268.21 2305.33 269.63C2305.86 271.05 2322.57 270.26 2320.36 271.95C2318.15 273.64 2302.51 278.53 2303.84 278.84C2305.17 279.15 2310.04 280.06 2308.27 281.59C2306.5 283.12 2302.8 288.47 2303.77 288.93C2304.74 289.39 2345.89 295.2 2345.89 295.2C2345.89 295.2 2347.22 287.55 2350.76 288.32C2354.3 289.08 2350.61 285.72 2345.89 283.73C2341.17 281.74 2347.51 280.82 2349.73 280.82C2351.95 280.82 2344.57 276.69 2340.44 275.16C2336.31 273.63 2344.42 274.7 2346.93 273.78C2349.44 272.86 2332.77 265.9 2334.1 265.6C2335.43 265.29 2342.8 269.5 2343.84 266.44C2344.87 263.38 2331.45 258.87 2333.66 257.95C2335.87 257.03 2348.85 258.79 2347.08 256.65C2345.31 254.51 2330.63 251.68 2331.96 251.22C2333.29 250.76 2342.06 251.6 2341.33 250.23C2340.59 248.85 2328.05 244.26 2330.56 244.26C2333.07 244.26 2339.48 245.02 2337.42 243.42C2336.31 242.55 2332.39 241.82 2330.21 237.19L2330.2 237.21Z" fill="#282133"/>
<path d="M2516.71 245.14C2515.68 242.95 2513.64 242.72 2512.45 244.69C2511.06 246.99 2509.57 248.8 2508.21 249.15C2505.85 249.76 2505.85 250.14 2503.56 251.67C2501.64 252.96 2505.09 252.77 2506.95 252.28C2508.67 251.83 2512.19 251.44 2509.9 253.04C2508 254.37 2499.13 256.35 2499.43 257.71C2499.73 259.07 2514.4 256.64 2511.45 257.71C2504.76 260.14 2497.44 263.75 2497.58 264.82C2497.73 265.89 2507.53 263.98 2507.76 264.44C2507.99 264.9 2499.5 268.26 2498.02 269.64C2496.54 271.02 2506.58 271.71 2507.02 272.47C2507.46 273.23 2491.31 276.14 2491.84 277.56C2492.37 278.98 2509.08 278.19 2506.87 279.88C2504.66 281.57 2489.02 286.46 2490.35 286.77C2491.68 287.08 2496.55 287.99 2494.78 289.52C2493.01 291.05 2489.31 296.4 2490.28 296.86C2491.24 297.32 2532.4 303.13 2532.4 303.13C2532.4 303.13 2533.73 295.48 2537.27 296.25C2540.81 297.01 2537.12 293.65 2532.4 291.66C2527.68 289.67 2534.02 288.75 2536.24 288.75C2538.46 288.75 2531.08 284.62 2526.95 283.09C2522.82 281.56 2530.93 282.63 2533.44 281.71C2535.95 280.79 2519.28 273.83 2520.61 273.53C2521.94 273.23 2529.31 277.43 2530.35 274.37C2531.38 271.31 2517.96 266.8 2520.17 265.88C2522.38 264.96 2535.36 266.72 2533.59 264.58C2531.82 262.44 2517.14 259.61 2518.47 259.15C2519.8 258.69 2528.57 259.53 2527.84 258.16C2527.11 256.79 2514.56 252.19 2517.07 252.19C2519.58 252.19 2525.99 252.95 2523.93 251.35C2522.82 250.48 2518.9 249.75 2516.72 245.12L2516.71 245.14Z" fill="#282133"/>
<path d="M765.53 386.82L745.93 407.16L793.21 408.48L770.1 386.9C769.29 386.14 766.23 386.09 765.52 386.82H765.53Z" fill="#282133"/>
<path d="M712.7 394.21L679.55 409.63L763.83 405.06L720.85 393.74C719.34 393.34 713.89 393.66 712.7 394.22V394.21Z" fill="#282133"/>
<path d="M615.91 402.92L582.25 417.18L666.63 415.52L624.07 402.72C622.58 402.27 617.12 402.4 615.91 402.91V402.92Z" fill="#282133"/>
<path d="M899.21 364.11L876.17 431.06L928.72 432.48L904.29 364.09C903.43 361.69 900.03 361.71 899.2 364.12L899.21 364.11Z" fill="#282133"/>
<path d="M1011.55 332.11L988.51 399.06L1041.06 400.48L1016.63 332.09C1015.77 329.69 1012.37 329.71 1011.54 332.12L1011.55 332.11Z" fill="#282133"/>
<path d="M1045.24 347.15L1014.37 436.86L1084.8 438.76L1052.06 347.11C1050.91 343.89 1046.35 343.92 1045.24 347.15Z" fill="#282133"/>
<path d="M1148.57 275.62L1113.66 377.05L1193.29 379.2L1156.28 275.57C1154.98 271.93 1149.83 271.96 1148.57 275.61V275.62Z" fill="#282133"/>
<path d="M1185.14 324.7L1156.75 407.2L1221.51 408.95L1191.41 324.67C1190.35 321.71 1186.16 321.74 1185.14 324.71V324.7Z" fill="#282133"/>
<path d="M1713.62 276.24L1694.36 332.2L1738.29 333.39L1717.87 276.22C1717.15 274.21 1714.31 274.23 1713.62 276.24Z" fill="#282133"/>
<path d="M1738.62 265.87L1716.34 330.61L1767.17 331.98L1743.55 265.84C1742.72 263.52 1739.43 263.54 1738.63 265.87H1738.62Z" fill="#282133"/>
<path d="M1806.7 243.87L1784.42 308.61L1835.25 309.98L1811.63 243.84C1810.8 241.52 1807.51 241.54 1806.71 243.87H1806.7Z" fill="#282133"/>
<path d="M1829.32 254.31L1807.04 319.05L1857.87 320.42L1834.25 254.28C1833.42 251.96 1830.13 251.98 1829.33 254.31H1829.32Z" fill="#282133"/>
<path d="M805.79 358.1L771.15 430.82L830.37 439.17L811.54 358.72C810.88 355.9 807.03 355.48 805.78 358.1H805.79Z" fill="#282133"/>
<path d="M1314.24 265.87L1285.3 361.47L1346.97 362.59L1319.42 265.91C1318.68 263.32 1315.02 263.29 1314.24 265.87Z" fill="#282133"/>
<path d="M1282.89 287.28L1258.99 364.95L1320.68 365.56L1289.29 287.02C1288.1 284.05 1283.84 284.22 1282.9 287.28H1282.89Z" fill="#282133"/>
<path d="M1350.03 293.58L1332.9 354L1379.99 358.6L1354.27 293.37C1353.48 291.37 1350.61 291.52 1350.03 293.58Z" fill="#282133"/>
<path d="M1386.42 275.61L1360.85 349.61L1419.36 352.94L1392.03 275.59C1391.09 272.94 1387.34 272.95 1386.42 275.61Z" fill="#282133"/>
<path d="M1425.32 289.09L1403.07 341.05L1459.86 350.88L1429.02 288.98C1428.24 287.42 1426 287.49 1425.32 289.09Z" fill="#282133"/>
<path d="M1534.85 254.32L1512.75 324.39C1512.2 326.13 1513.38 327.94 1515.19 328.15L1564.95 333.85C1567.09 334.1 1568.75 332 1568.01 329.97L1540.35 254.21C1539.4 251.61 1535.69 251.69 1534.86 254.33L1534.85 254.32Z" fill="#282133"/>
<path d="M1569.99 267.39L1546.3 320.47L1604.92 320.43L1575.12 267.16C1573.97 265.1 1570.95 265.23 1569.99 267.39Z" fill="#282133"/>
<path d="M1475.38 261.59C1474.46 259.88 1472.05 259.8 1470.94 261.39C1468.16 265.38 1464.87 268.99 1461.69 269.67C1457.36 270.61 1457.4 271.07 1453.31 273.12C1449.87 274.84 1456.3 274.33 1459.72 273.58C1462.87 272.89 1469.4 272.12 1465.32 274.26C1461.94 276.04 1445.6 279.17 1446.32 280.8C1447.03 282.43 1474.14 278.26 1468.77 279.8C1456.56 283.31 1443.32 288.3 1443.72 289.59C1444.12 290.88 1462.21 287.74 1462.68 288.28C1463.15 288.82 1447.71 293.61 1445.12 295.41C1442.53 297.2 1461.34 297.21 1462.26 298.1C1463.18 298.99 1433.36 303.86 1434.52 305.55C1435.68 307.24 1466.8 304.89 1462.86 307.12C1458.93 309.35 1430.31 316.6 1432.82 316.86C1435.33 317.12 1444.53 317.83 1441.41 319.84C1438.29 321.85 1432.01 328.66 1433.87 329.13C1435.54 329.56 1498.55 332.56 1511.11 333.16C1512.3 333.22 1513.4 332.48 1513.76 331.34C1514.62 328.63 1516.8 324.04 1521.55 324.49C1528.25 325.13 1520.97 321.34 1511.92 319.32C1502.87 317.29 1514.61 315.65 1518.74 315.47C1522.87 315.29 1508.61 310.88 1500.72 309.36C1492.83 307.84 1508.1 308.47 1512.68 307.15C1517.25 305.83 1485.3 298.75 1487.75 298.27C1490.19 297.79 1504.46 302.29 1506.03 298.49C1507.6 294.69 1481.99 290.32 1486.02 289.02C1490.05 287.72 1514.49 288.78 1510.93 286.33C1507.37 283.87 1479.63 281.65 1482.05 280.98C1484.47 280.31 1500.96 280.61 1499.42 279C1497.88 277.39 1473.92 272.85 1478.61 272.64C1483.3 272.43 1495.37 272.83 1491.32 271.05C1488.84 269.96 1479.63 269.38 1475.41 261.57L1475.38 261.59Z" fill="#282133"/>
<path d="M1608.76 246.16C1608.23 244.51 1606.01 244.26 1605.14 245.76C1603.1 249.26 1600.84 252.25 1598.84 252.75C1595.9 253.47 1595.9 253.94 1593.03 255.78C1590.62 257.33 1594.91 257.13 1597.22 256.55C1599.36 256.02 1603.73 255.57 1600.86 257.51C1598.49 259.12 1587.45 261.44 1587.79 263.1C1588.13 264.76 1606.36 261.92 1602.69 263.2C1594.35 266.11 1585.21 270.44 1585.37 271.74C1585.53 273.05 1597.72 270.8 1597.99 271.36C1598.26 271.92 1587.68 275.95 1585.83 277.61C1583.98 279.27 1596.4 280.2 1596.93 281.13C1597.46 282.06 1577.39 285.46 1578.02 287.2C1578.65 288.94 1599.38 288.12 1596.61 290.15C1593.84 292.19 1574.36 298.01 1576 298.4C1577.64 298.79 1583.66 299.94 1581.44 301.79C1579.22 303.64 1574.53 310.12 1575.72 310.69C1576.91 311.26 1627.82 318.68 1627.82 318.68C1627.82 318.68 1629.61 309.38 1633.98 310.34C1638.35 311.3 1633.84 307.17 1628.03 304.71C1622.22 302.25 1630.09 301.19 1632.84 301.2C1635.58 301.22 1626.52 296.13 1621.42 294.23C1616.33 292.33 1626.37 293.71 1629.49 292.61C1632.62 291.51 1612.08 282.9 1613.73 282.54C1615.38 282.18 1624.45 287.36 1625.78 283.65C1627.12 279.93 1610.56 274.33 1613.32 273.23C1616.08 272.13 1632.14 274.38 1629.98 271.76C1627.82 269.14 1609.68 265.57 1611.34 265.02C1612.99 264.47 1623.86 265.57 1622.97 263.89C1622.08 262.21 1606.62 256.51 1609.73 256.53C1612.84 256.55 1620.78 257.54 1618.25 255.56C1616.75 254.39 1611.07 253.39 1608.74 246.14L1608.76 246.16Z" fill="#282133"/>
<path d="M1645.52 238.41C1645.73 236.4 1648.36 235.78 1649.45 237.48C1652.37 242.02 1655.4 245.84 1657.63 246.35C1660.94 247.12 1661.05 247.75 1664.52 250.04C1667.44 251.97 1662.8 252.02 1660.19 251.41C1657.78 250.85 1653 250.56 1656.49 252.98C1659.39 254.99 1671.73 257.33 1671.73 259.61C1671.73 261.89 1651.55 259.4 1655.77 260.87C1665.35 264.2 1676.11 269.41 1676.22 271.2C1676.33 272.99 1662.76 270.85 1662.6 271.63C1662.44 272.41 1674.66 277.1 1677.02 279.22C1679.37 281.35 1666.25 283.53 1665.88 284.85C1665.51 286.17 1687.79 289.28 1687.49 291.7C1687.19 294.11 1664.77 294.55 1668.2 297.11C1671.62 299.67 1693.78 306.14 1692.11 306.79C1690.43 307.44 1684.23 309.46 1687.02 311.81C1689.81 314.16 1694.27 335.54 1693.12 336.4C1691.97 337.26 1640.97 338.28 1640.97 338.28C1640.97 338.28 1637.02 325.76 1632.54 327.39C1628.06 329.03 1631.99 323.07 1637.69 319.28C1643.39 315.49 1634.7 314.64 1631.77 314.87C1628.84 315.1 1637.44 307.49 1642.49 304.53C1647.54 301.57 1637.07 304.19 1633.48 302.93C1629.89 301.67 1650.03 288.41 1648.18 288.04C1646.33 287.67 1637.74 295.41 1635.49 290.45C1633.24 285.49 1649.77 276.62 1646.57 275.33C1643.37 274.04 1626.64 278.31 1628.37 274.58C1630.11 270.85 1648.78 264.63 1646.89 264.01C1645 263.39 1633.58 265.7 1634.17 263.34C1634.76 260.98 1650.09 252.07 1646.76 252.34C1643.43 252.6 1635.13 254.54 1637.41 251.66C1638.75 249.97 1644.52 248.2 1645.52 238.41Z" fill="#282133"/>
<path d="M1984.96 230.99L1963.38 303.82L2021.41 309.44L1991.12 230.75C1990 227.85 1985.85 228.02 1984.97 230.99H1984.96Z" fill="#282133"/>
<path d="M2020.15 280.47L1996.66 332.81L2055.28 332.89L2025.96 280.21C2024.66 277.87 2021.25 278.02 2020.16 280.46L2020.15 280.47Z" fill="#282133"/>
<path d="M2148.66 209.91L2127.08 282.74L2185.11 288.36L2154.82 209.67C2153.7 206.77 2149.55 206.94 2148.67 209.91H2148.66Z" fill="#282133"/>
<path d="M2183.85 236.84L2160.36 289.18L2218.98 289.26L2189.66 236.58C2188.36 234.24 2184.95 234.39 2183.86 236.83L2183.85 236.84Z" fill="#282133"/>
<path d="M2417.87 224.7L2396.29 297.53L2454.32 303.15L2424.03 224.46C2422.91 221.56 2418.76 221.73 2417.88 224.7H2417.87Z" fill="#282133"/>
<path d="M2453.06 246.73L2429.57 299.07L2488.19 299.15L2458.87 246.47C2457.57 244.13 2454.16 244.28 2453.07 246.72L2453.06 246.73Z" fill="#282133"/>
<path d="M1090.84 374.42C851.64 395.14 644.22 408.64 449.64 413.36C192.01 419.6 0 431.35 0 431.35V473H2560V285.64C2560 285.64 2446.61 293.92 2352.16 284.44C2252.71 274.46 2061.18 273.94 1840.82 287.11C1594.02 301.86 1321.5 354.43 1090.83 374.41L1090.84 374.42Z" fill="#282133"/>
<path opacity="0.2" d="M1710.43 445.38C1974.75 445.38 2189.02 369.931 2189.02 276.86C2189.02 183.789 1974.75 108.34 1710.43 108.34C1446.11 108.34 1231.84 183.789 1231.84 276.86C1231.84 369.931 1446.11 445.38 1710.43 445.38Z" fill="url(#paint3_radial_4503_28016)"/>
<path opacity="0.5" d="M1856.3 355.92C1856.66 356.02 1855.9 356.65 1854.55 357.57C1854.55 357.27 1854.33 356.95 1853.91 356.61C1855.01 356.14 1855.9 355.8 1856.3 355.92Z" fill="#1D1D2A"/>
<path d="M516.7 454.27C480.64 456.35 399.56 459.39 358.53 459.42C288.04 459.47 200.64 458.35 122.64 460.35C59.53 461.97 0 463.35 0 463.35V473H2560V348.14H2559.08C2559.28 347.88 2559.59 347.65 2560 347.46V340.59C2557.62 339.02 2555.02 337.49 2553.01 336.52C2548.02 334.13 2555.84 335.47 2560 334.85V331.87C2555.13 327.81 2542.11 320.59 2543.43 320.23C2545.16 319.77 2555.48 327.11 2556.49 322.02C2557.5 316.93 2539.1 308.84 2541.93 307.38C2542.91 306.88 2545.65 306.96 2548.7 307.14C2554.46 307.47 2561.35 308.11 2559.64 305.72C2558.99 304.8 2557.25 303.77 2555.03 302.75C2553.69 302.12 2552.17 301.49 2550.61 300.88C2544.51 298.51 2537.85 296.45 2538.87 296.02C2540.12 295.5 2546.68 296.28 2549.73 295.84C2550.88 295.68 2551.53 295.35 2551.22 294.71C2550.94 294.15 2549.75 293.26 2548.13 292.22C2543 288.93 2533.65 284.21 2536.18 284.29C2538.37 284.35 2542.83 285.03 2544.81 284.71C2545.86 284.54 2546.22 284.1 2545.21 283.14C2544.85 282.81 2544.31 282.48 2543.65 282.09C2542.28 281.26 2540.38 280.15 2538.5 278.09C2537.02 276.48 2535.56 274.29 2534.38 271.2C2533.49 268.88 2530.22 268.84 2529.28 271.15C2527.67 275.1 2525.86 278.26 2524.04 278.81C2520.97 279.75 2521.02 280.39 2518.16 282.87C2515.75 284.95 2520.33 284.77 2522.75 284.03C2524.98 283.34 2529.61 282.81 2526.76 285.42C2525.99 286.12 2524.25 286.91 2522.26 287.74C2518.15 289.45 2513.01 291.31 2513.38 292.85C2513.58 293.66 2516.09 293.74 2519.1 293.59C2521.47 293.47 2524.16 293.2 2526.25 293.02C2529.04 292.78 2530.78 292.69 2529.38 293.31C2527.52 294.14 2525.63 295.05 2523.81 296C2522.92 296.46 2522.06 296.93 2521.22 297.39C2518.87 298.71 2516.74 300.02 2515.11 301.19H2515.1C2514.53 301.6 2514.02 301.99 2513.58 302.36C2512.36 303.37 2511.69 304.2 2511.78 304.71C2511.98 305.82 2516.95 305.17 2520.81 304.69C2523.19 304.39 2525.14 304.16 2525.27 304.46C2525.29 304.51 2525.27 304.58 2525.19 304.67C2524.23 305.92 2514.62 310.71 2512.94 312.81C2511.14 315.06 2524.57 316.6 2525.25 317.9C2525.79 318.94 2512.37 321.88 2507.43 324.24L2498.29 302.25L2498.07 301.73L2491.82 286.69C2490.63 283.83 2486.5 284.12 2485.72 287.11L2481.81 302.15V302.17L2469.49 349.47L2452.26 306.01C2452.04 305.47 2451.74 305.01 2451.38 304.64C2449.77 303 2447.01 303.1 2445.5 304.78C2445.11 305.22 2444.8 305.77 2444.62 306.43L2431.67 353.79C2419.18 354.43 2406.06 355.1 2392.41 355.8L2376.92 306.27L2376.62 305.3L2375.55 301.87L2372.58 292.39C2372.5 292.12 2372.38 291.88 2372.23 291.66C2371.01 289.68 2367.84 289.81 2366.91 292.2L2363.14 301.88L2361.88 305.12L2346.72 344.05L2336.62 306.49L2335.39 301.93L2334.4 298.25C2333.44 294.68 2328.42 294.52 2327.24 298.03L2325.91 301.95L2324.82 305.17L2308.66 352.95L2298.22 322.64C2297.49 320.49 2294.46 320.48 2293.7 322.61L2281.58 356.55L2264.72 307.58L2262.9 302.29L2257.28 285.95C2256.13 282.6 2251.39 282.57 2250.2 285.91L2249.46 287.99L2244.3 302.43L2242.24 308.19L2239.82 314.98L2231.58 338.04C2227.6 336.21 2213.6 332.56 2214 332.04C2214.42 331.48 2232.77 333.81 2233.05 332.51C2233.32 331.2 2219.62 326.81 2207.1 323.84C2201.58 322.54 2229.04 325.5 2229.6 323.84C2230.15 322.19 2213.54 319.79 2210 318.16C2205.72 316.21 2212.3 316.69 2215.52 317.23C2219 317.82 2225.47 318.05 2221.87 316.49C2221.01 316.11 2220.32 315.79 2219.74 315.52C2217.41 314.42 2216.7 314.01 2213.17 313.41C2212.08 313.23 2210.94 312.72 2209.79 311.97C2208.27 310.98 2206.73 309.57 2205.24 307.98C2203 305.58 2199.19 305.86 2197.26 308.53C2194.08 312.93 2188.92 314.44 2185.81 315.39H2185.8C2184.93 315.66 2184.23 315.88 2183.77 316.11C2183.65 316.17 2183.55 316.23 2183.46 316.28C2180.64 318.01 2192.05 317.14 2196.61 317.14C2201.17 317.14 2177.84 322.73 2176.46 324.4C2175.08 326.08 2191.5 325.05 2193.99 325.61C2196.47 326.17 2169 329.62 2165.69 332.23C2162.38 334.83 2186.67 332.69 2190.81 333.81C2194.95 334.93 2169.83 340.42 2171.76 344.15C2173.7 347.87 2187.5 342.75 2189.98 343.12C2192.47 343.49 2161.27 351.97 2165.97 353.09C2170.66 354.2 2185.84 352.9 2178.11 354.76C2170.38 356.63 2156.58 361.66 2160.72 361.66C2164.86 361.66 2176.73 362.77 2167.9 365.19C2165.23 365.93 2162.74 366.81 2160.75 367.66C2155.59 367.92 2150.43 368.17 2145.29 368.42L2124.28 307.37L2123.18 304.18C2123.18 304.18 2123.15 304.09 2123.12 304.05C2122.5 302.43 2120.79 301.85 2119.38 302.33C2118.58 302.6 2117.89 303.2 2117.55 304.15L2116.13 308.12L2109.71 326.1L2099.4 354.97L2089.65 326.64L2087.84 321.39L2086.12 316.39C2085.2 313.72 2081.44 313.7 2080.49 316.36L2078.61 321.64L2076.69 326.99L2066.91 354.38L2055.85 322.25L2050.16 305.71L2046.77 295.86C2045.65 292.61 2041.06 292.58 2039.9 295.82L2039.02 298.28L2036.23 306.11L2031.94 318.09L2030.21 322.95L2019.57 352.74L2009.09 322.29L2003.88 307.13L2003.24 305.28L2001.49 300.2C2001.33 299.74 2001.11 299.35 2000.83 299.02C2000.13 298.18 1999.11 297.75 1998.08 297.74C1996.65 297.73 1995.21 298.54 1994.63 300.16L1993.16 304.27L1991.99 307.55L1991.21 309.73L1989.38 314.84L1983.67 330.84L1982.44 334.27L1981.4 331.26L1973.49 308.25L1960.87 271.58C1959.42 267.38 1953.48 267.34 1951.99 271.53L1950.46 275.81L1949.36 278.89L1944.19 293.37L1943.33 295.78L1939.35 306.93L1938.32 309.79L1931.56 328.71L1926.69 342.36L1923.23 352.05L1919.96 342.54L1918.95 339.61L1909.44 311.99C1909.35 311.74 1909.25 311.51 1909.11 311.3C1907.81 309.18 1904.54 309.29 1903.44 311.62C1903.38 311.73 1903.33 311.84 1903.29 311.95L1893.16 340.31L1892.1 343.3L1886.32 359.48C1880.97 357.43 1871.89 355.12 1872.25 354.33C1872.77 353.2 1884.56 352.18 1882.83 350.15C1881.09 348.12 1871.12 343.15 1871.39 342.47C1871.57 342.01 1877 343.18 1880.48 343.47C1882.1 343.6 1883.3 343.54 1883.35 343.04C1883.4 342.57 1882.68 341.78 1881.44 340.79C1881.37 340.74 1881.3 340.68 1881.23 340.63C1878.22 338.3 1872.46 335 1867.05 332.53C1863.59 330.95 1880.83 334.54 1881.18 332.53C1881.53 330.53 1871.1 327.61 1868.87 325.65C1866.19 323.27 1870.32 323.86 1872.34 324.52C1874.53 325.23 1878.59 325.51 1876.33 323.61C1873.64 321.35 1873.64 320.79 1870.87 319.89C1869.39 319.41 1867.79 317.07 1866.26 314.04C1866.13 313.8 1866.01 313.55 1865.89 313.3C1864.48 310.38 1862.09 310.73 1860.88 313.96C1860.82 314.13 1860.75 314.3 1860.68 314.46C1858.09 320.85 1853.68 321.91 1852.4 323.16C1849.98 325.53 1857.52 324.4 1860.46 324.4C1862.55 324.4 1855.8 327.79 1851.35 330.49C1849.51 331.61 1848.06 332.61 1847.81 333.21C1847.36 334.26 1849.92 334.44 1852.71 334.45C1855.29 334.47 1858.07 334.35 1858.82 334.68C1859.46 334.96 1856.93 335.83 1853.58 336.98C1850.43 338.06 1846.55 339.38 1843.91 340.69C1843.89 340.52 1843.81 340.35 1843.66 340.17C1842.1 338.34 1836.09 334.93 1831.62 332.27C1828.64 330.49 1826.34 329.06 1826.5 328.65C1826.66 328.25 1829.42 328.66 1832.73 329.17C1837.85 329.94 1844.28 330.94 1844.44 329.5C1844.58 328.2 1840.76 325.21 1835.33 321.88C1832.9 320.39 1830.14 318.83 1827.28 317.33C1824.89 316.07 1822.42 314.86 1820 313.75C1815.93 311.89 1830.99 314.81 1837.9 314.68C1839.79 314.65 1841.08 314.39 1841.19 313.75C1841.32 313.02 1840.48 312.2 1839.09 311.35C1834.8 308.7 1825.26 305.65 1822.73 303.42C1818.7 299.87 1824.9 300.74 1827.93 301.73C1831.21 302.8 1837.3 303.23 1833.91 300.38C1829.88 296.99 1829.88 296.14 1825.72 294.79C1823.33 294.01 1820.71 289.99 1818.26 284.91C1817.44 283.2 1816.39 282.25 1815.31 282C1813.62 281.6 1811.84 282.95 1810.74 285.9C1807.11 295.61 1800.74 297.58 1798.4 299.39C1798.27 299.49 1798.15 299.6 1798.04 299.7C1796.58 301.13 1797.53 301.71 1799.47 301.9C1801.79 302.11 1805.54 301.77 1808.3 301.62C1808.98 301.58 1809.6 301.56 1810.12 301.56C1811.62 301.56 1810.07 302.73 1807.31 304.39C1805.77 305.32 1803.85 306.41 1801.87 307.54C1796.98 310.32 1791.76 313.34 1791.15 314.77C1790.23 316.92 1797.66 316.62 1802.94 316.62C1804 316.62 1804.97 316.62 1805.77 316.68C1806.64 316.72 1807.3 316.81 1807.66 316.97C1808.09 317.16 1807.55 317.53 1806.35 318.04C1805.28 318.5 1803.7 319.07 1801.84 319.71C1801.2 319.93 1800.52 320.16 1799.82 320.4C1792.61 322.87 1782.85 326.19 1781.01 328.99C1778.78 332.37 1789.81 331.36 1797.72 331.24C1800.89 331.19 1803.56 331.29 1804.67 331.87C1806.9 333.03 1800.09 336.81 1794.2 341.1C1789.82 344.29 1785.95 347.77 1786.73 350.67C1786.84 351.08 1786.99 351.43 1787.18 351.73C1789.02 354.65 1794.33 352.46 1798.54 350.6C1801 349.53 1803.08 348.57 1803.89 348.8C1804.27 348.91 1803.81 349.42 1802.77 350.19C1797.51 354.17 1777.57 365.22 1781.27 366.92C1785.69 368.95 1799.99 366.58 1792.71 369.97C1788.29 372.02 1781.78 376.2 1778.2 379.16L1769.46 353.48L1760.45 326.99L1756.85 316.42L1756.43 315.18L1751.47 300.58L1749.61 295.13C1748.92 293.11 1747.11 292.14 1745.34 292.22C1743.89 292.28 1742.47 293.04 1741.72 294.51C1741.64 294.68 1741.56 294.86 1741.49 295.05L1740.08 298.96L1737.68 305.59L1736.31 309.39L1732.98 318.61L1732.13 320.96L1727.73 333.16L1719.65 355.52L1717.76 360.76C1714.35 359.57 1710.49 358.33 1707.28 357.26C1703.18 355.89 1700.13 354.79 1700.43 354.36C1701.31 353.1 1719.02 353.24 1716.61 350.67C1714.19 348.1 1699.72 341.19 1700.17 340.43C1700.63 339.66 1717.61 344.25 1718.01 342.43C1718.22 341.47 1714.93 339.05 1710.1 336.24C1705.7 333.67 1700.02 330.77 1694.56 328.35C1689.52 326.11 1714.99 332.23 1715.69 329.93C1716.38 327.63 1701.05 323.06 1697.89 320.51C1694.08 317.44 1700.21 318.59 1703.17 319.59C1706.38 320.67 1712.43 321.45 1709.21 318.98C1705.39 316.04 1705.44 315.38 1701.37 314.02C1700.86 313.85 1700.34 313.55 1699.82 313.13C1699.27 312.72 1698.73 312.17 1698.19 311.53C1696.92 310.04 1695.68 308.03 1694.51 305.77C1694.34 305.44 1694.15 305.14 1693.95 304.87C1692 302.27 1688.86 302.69 1686.96 305.98C1684.67 309.95 1681.71 312.07 1679.09 313.37C1676.64 314.6 1674.48 315.11 1673.48 315.76C1670.71 317.57 1675.91 317.82 1680.66 317.95C1682.47 318 1684.21 318.03 1685.43 318.12C1687.08 318.24 1684.93 319.2 1681.53 320.47C1675.85 322.57 1666.66 325.55 1665.73 326.97C1664.26 329.25 1679.79 328.96 1682.06 329.92C1684.22 330.84 1660.83 333.53 1655.5 336.75C1655.21 336.92 1654.97 337.1 1654.79 337.28C1653.33 338.77 1656.77 339.37 1661.46 339.73C1667.67 340.19 1676.07 340.23 1678.21 341.29C1678.28 341.33 1678.35 341.37 1678.4 341.41C1680.57 343.05 1665.28 347.31 1660.54 351.72C1659.51 352.67 1658.98 353.63 1659.23 354.57C1659.66 356.21 1661.2 356.78 1663.2 356.79C1667.8 356.82 1674.84 353.92 1676.44 354.41C1677.56 354.75 1671 357.24 1664.46 359.92C1660.13 361.7 1655.8 363.57 1653.71 364.95H1653.7C1653.41 365.14 1653.16 365.33 1652.96 365.51C1652.32 366.07 1652.2 366.52 1652.83 366.8C1657.12 368.71 1671.52 367.94 1664.06 370.03C1659.53 371.3 1652.79 374.06 1649.05 376.1C1638.04 375.65 1627.21 375.2 1616.51 374.75L1615.68 372.34L1608.47 351.39L1603.6 337.24L1602.05 332.73C1602.01 332.6 1601.96 332.48 1601.9 332.36C1601.23 330.91 1599.82 330.22 1598.44 330.29C1597.07 330.35 1595.74 331.14 1595.19 332.69L1594.45 334.76L1587.56 354.05L1582.41 368.46L1580.69 373.28C1576.81 373.12 1572.94 372.97 1569.08 372.83L1567.71 368.86L1563.6 356.92L1560.7 348.48L1556.77 337.07C1555.66 333.82 1551.07 333.79 1549.91 337.03L1542.13 358.8L1541.94 359.35L1537.72 371.15L1533.95 360.21L1520.54 321.21L1516.15 308.46C1514.7 304.25 1508.77 304.22 1507.27 308.41L1501.28 325.18L1490.33 355.86L1487.14 364.79L1485.59 369.12L1484.19 365.06L1482.98 361.55L1471.79 329.05C1470.79 326.13 1466.68 326.11 1465.64 329.01L1451.81 367.73L1450.76 370.68C1445.2 370.79 1439.63 371 1434.03 371.29C1428.27 371.59 1422.5 371.97 1416.71 372.44C1412.38 372.79 1408.05 373.18 1403.71 373.61C1402 372.76 1400.31 371.91 1398.89 371.14C1397.09 370.16 1395.68 369.3 1395.09 368.7C1392.45 366.02 1412.36 367.28 1412.99 365.02C1413.63 362.76 1394.38 358.15 1394.91 356.94C1395.44 355.73 1407.39 354.64 1405.63 352.45C1403.87 350.27 1393.77 344.93 1394.03 344.21C1394.3 343.48 1405.98 346.51 1406.16 344.81C1406.33 343.11 1397.61 337.39 1389.64 333.53C1386.45 331.98 1400.62 335.04 1403.47 333.97C1403.76 333.87 1403.93 333.73 1403.96 333.53C1404.04 333.05 1403.57 332.52 1402.78 331.97C1400.01 330.03 1393.24 327.77 1391.49 326.13C1388.76 323.58 1392.95 324.21 1395 324.92C1397.22 325.69 1401.33 325.99 1399.04 323.95C1396.32 321.52 1396.32 320.92 1393.51 319.95C1391.89 319.39 1390.12 316.51 1388.46 312.87C1387.03 309.74 1384.61 310.11 1383.38 313.58C1380.79 320.93 1376.12 322.09 1374.79 323.46C1372.33 326.01 1379.98 324.8 1382.96 324.8C1385.94 324.8 1371.01 332.08 1370.14 334.26C1369.26 336.44 1379.71 335.11 1381.29 335.84C1382.65 336.46 1369.85 339.88 1364.94 342.99C1364.16 343.49 1363.57 343.98 1363.28 344.45C1362.56 345.6 1363.88 346.04 1366.04 346.17C1370.21 346.43 1377.53 345.55 1379.27 346.51C1381.18 347.57 1373.3 351.62 1369.29 355.62C1367.77 357.13 1366.81 358.64 1367.15 359.97C1367.64 361.91 1369.34 362.01 1371.3 361.46C1374.25 360.64 1377.8 358.35 1378.75 358.64C1379.45 358.86 1375.95 361.14 1372.09 363.74C1367.23 367.01 1361.79 370.81 1363.46 371.62C1365.02 372.37 1368.39 372.27 1370.56 372.35H1370.63C1372.58 372.43 1373.52 372.66 1371.19 373.8C1368.98 374.89 1366 376.81 1363.62 378.59C1357.8 379.45 1351.97 380.35 1346.15 381.3C1341.16 382.11 1336.17 382.95 1331.19 383.82C1327.74 384.41 1324.29 385.02 1320.84 385.65C1313.78 386.91 1306.74 388.22 1299.72 389.56C1297.62 389.96 1295.53 390.36 1293.44 390.76L1290.84 383.21L1286.83 371.55L1278.86 348.37C1277.74 345.12 1273.15 345.1 1271.99 348.33L1267.51 360.88L1264.39 369.6L1264.16 370.26C1263.76 370 1263.29 369.73 1262.77 369.46C1259.57 367.77 1254.58 365.96 1253.11 364.58C1250.39 362.04 1254.58 362.66 1256.63 363.37C1258.84 364.14 1262.96 364.44 1260.67 362.4C1257.94 359.98 1257.94 359.37 1255.13 358.4C1254.42 358.16 1253.68 357.47 1252.94 356.47C1251.98 355.17 1251.02 353.37 1250.09 351.32C1248.66 348.19 1246.23 348.56 1245.01 352.03C1242.41 359.38 1237.74 360.54 1236.42 361.92C1233.96 364.46 1241.6 363.25 1244.59 363.25C1246.14 363.25 1242.89 365.2 1239.27 367.38C1235.89 369.42 1232.19 371.66 1231.76 372.71C1230.88 374.9 1241.34 373.56 1242.92 374.29C1244.48 375.01 1227.49 379.39 1225.01 382.76L1224.33 380.77L1221.93 373.81C1221.14 371.51 1217.89 371.49 1217.07 373.78L1214.22 381.76L1213.97 382.46L1204.88 407.92C1202.05 408.43 1199.23 408.93 1196.42 409.42L1187.79 384.35L1184.38 374.42L1184.31 374.21L1180.11 362.03L1173.81 343.71C1172.81 340.8 1168.7 340.78 1167.66 343.68L1161.7 360.36L1156.1 376.03L1152.8 385.28L1149.74 376.39L1146.69 367.51L1145.34 363.6L1143.67 358.72L1139.82 347.53C1138.37 343.33 1132.43 343.29 1130.94 347.48L1127.45 357.26L1122.27 371.74L1105.07 419.9C1086.79 421.01 1067.45 422.17 1047.32 423.35L1027.21 367.05C1026.35 364.63 1022.92 364.65 1022.08 367.08L1003.72 420.44C1001.24 418.62 997.88 416.56 995.46 415.43C990.52 413.13 1000.23 414.74 1003.23 413.36C1006.23 411.98 986.28 401.51 987.87 401.05C989.46 400.59 998.29 406.92 999.53 402.32C1000.77 397.72 984.7 390.93 987.34 389.55C989.98 388.17 1005.53 390.82 1003.41 387.59C1001.29 384.37 983.72 380.11 985.31 379.42C986.9 378.73 997.41 380 996.52 377.92C995.64 375.85 980.63 368.95 983.63 368.95C986.63 368.95 994.31 370.1 991.84 367.68C990.51 366.38 985.82 365.27 983.21 358.31C981.98 355.02 979.54 354.66 978.1 357.63C976.43 361.08 974.65 363.81 973.03 364.34C970.2 365.26 970.2 365.84 967.47 368.14C965.17 370.08 969.3 369.79 971.53 369.06C973.59 368.39 977.8 367.79 975.06 370.21C972.79 372.21 962.17 375.18 962.52 377.23C962.87 379.27 980.44 375.62 976.91 377.23C968.9 380.89 960.13 386.32 960.31 387.93C960.49 389.54 972.23 386.66 972.5 387.35C972.77 388.04 962.61 393.1 960.84 395.17C959.07 397.24 971.08 398.28 971.61 399.43C972.14 400.58 952.8 404.95 953.44 407.09C954.08 409.23 974.08 408.04 971.44 410.58C968.8 413.12 950.07 420.48 951.66 420.94C953.25 421.4 959.08 422.78 956.96 425.08C956.28 425.82 955.36 427.16 954.46 428.66C953.76 428.7 953.06 428.74 952.36 428.78L942.72 401.78C942.15 400.17 939.87 400.18 939.31 401.8L929.59 430.05C909.93 431.15 890.01 432.25 870.01 433.34L857.58 398.55C856.8 396.38 853.72 396.39 852.97 398.58L840.45 434.95C837.73 435.1 835 435.25 832.28 435.39L823.19 409.95C822.55 408.16 820.02 408.18 819.4 409.97L810.24 436.58C771.16 438.68 755.44 436.32 718.47 438.66C669.58 441.76 559.11 451.78 516.68 454.23L516.7 454.27Z" fill="#1D1D2A"/>
<path d="M536.93 454.04C555.39 452.3 573.48 450.69 590.78 449.28Z" fill="#1D1D2A"/>
<defs>
<linearGradient id="paint0_linear_4503_28016" x1="1698.08" y1="-42.26" x2="1698.08" y2="389.75" gradientUnits="userSpaceOnUse">
<stop stop-color="#13151F"/>
<stop offset="0.29" stop-color="#1D1C2F"/>
<stop offset="0.39" stop-color="#212036"/>
<stop offset="0.52" stop-color="#33283E"/>
<stop offset="0.79" stop-color="#623D53"/>
<stop offset="1" stop-color="#8C5166"/>
</linearGradient>
<radialGradient id="paint1_radial_4503_28016" cx="0" cy="0" r="1" gradientUnits="userSpaceOnUse" gradientTransform="translate(1705.37 229.156) scale(304.715 227.824)">
<stop stop-color="#BA7978"/>
<stop offset="0.06" stop-color="#BF7F7A" stop-opacity="0.89"/>
<stop offset="0.23" stop-color="#CD8F81" stop-opacity="0.62"/>
<stop offset="0.4" stop-color="#D99D87" stop-opacity="0.4"/>
<stop offset="0.57" stop-color="#E2A78C" stop-opacity="0.22"/>
<stop offset="0.72" stop-color="#E8AE8F" stop-opacity="0.1"/>
<stop offset="0.87" stop-color="#ECB391" stop-opacity="0.03"/>
<stop offset="1" stop-color="#EEB592" stop-opacity="0"/>
</radialGradient>
<radialGradient id="paint2_radial_4503_28016" cx="0" cy="0" r="1" gradientUnits="userSpaceOnUse" gradientTransform="translate(1702.62 247.413) rotate(-11.05) scale(138.912 114.313)">
<stop stop-color="#BA7978"/>
<stop offset="0.32" stop-color="#C98B7F" stop-opacity="0.7"/>
<stop offset="1" stop-color="#EEB592" stop-opacity="0"/>
</radialGradient>
<radialGradient id="paint3_radial_4503_28016" cx="0" cy="0" r="1" gradientUnits="userSpaceOnUse" gradientTransform="translate(1714.73 269.021) scale(478.95 169.229)">
<stop stop-color="#BA7978"/>
<stop offset="0.06" stop-color="#BF7F7A" stop-opacity="0.89"/>
<stop offset="0.23" stop-color="#CD8F81" stop-opacity="0.62"/>
<stop offset="0.4" stop-color="#D99D87" stop-opacity="0.4"/>
<stop offset="0.57" stop-color="#E2A78C" stop-opacity="0.22"/>
<stop offset="0.72" stop-color="#E8AE8F" stop-opacity="0.1"/>
<stop offset="0.87" stop-color="#ECB391" stop-opacity="0.03"/>
<stop offset="1" stop-color="#EEB592" stop-opacity="0"/>
</radialGradient>
</defs>
</svg>
